<svg width="168" height="168" viewBox="0 0 168 168" fill="none" xmlns="http://www.w3.org/2000/svg">
<rect width="168" height="168" fill="white"/>
<path d="M97.4268 98.1053C97.4268 98.1053 97.4268 98.7544 97.4268 98.1053C98.0732 98.7544 98.0732 98.7544 98.0732 98.1053L147.841 65.6491C148.488 65 149.78 65 150.427 65H161.415C163.354 65 164 66.2982 164 67.5965V88.3684C164 90.9649 163.354 92.2632 161.415 93.5614L147.841 101.351C147.841 101.351 147.841 101.351 147.195 101.351C147.195 101.351 147.195 101.351 147.195 100.702V76.0351V75.386C147.195 75.386 147.195 75.386 146.549 75.386L110.354 99.4035C109.061 100.053 108.415 100.053 107.768 100.053H83.8537C81.9146 100.053 81.2683 98.7544 81.2683 97.4561V66.9474V66.2982C81.2683 66.2982 81.2683 66.2982 80.6219 66.2982L56.061 82.5263C56.061 82.5263 56.061 82.5263 56.061 83.1754C56.061 83.1754 56.061 83.1754 56.061 83.8246L73.5122 101.351L74.1585 102C74.1585 102 74.1585 102 73.5122 102H58C56.7073 102 56.061 102 55.4146 101.351L45.0732 90.9649L27.622 101.351C26.3293 102 25.6829 102 25.0366 102H7.58536C5.64634 102 5 100.702 5 99.4035V78.6316C5 76.0351 5.64634 74.7368 7.58536 73.4386L21.1585 65.6491C21.1585 65.6491 21.1585 65.6491 21.8049 65.6491C21.8049 65.6491 21.8049 65.6491 21.8049 66.2982V93.5614V94.2105C21.8049 94.2105 21.8049 94.2105 22.4512 94.2105L67.6951 66.9474C68.9878 66.2982 69.6341 66.2982 70.9268 66.2982H94.8415C96.7805 66.2982 97.4268 67.5965 97.4268 68.8947V98.1053Z" fill="#05141F"/>
</svg>
