<?xml version="1.0" encoding="utf-8"?>
<!-- Generator: Adobe Illustrator 24.2.0, SVG Export Plug-In . SVG Version: 6.00 Build 0)  -->
<svg version="1.1" id="Layer_1" xmlns="http://www.w3.org/2000/svg" xmlns:xlink="http://www.w3.org/1999/xlink" x="0px" y="0px"
	 viewBox="0 0 691.2 162.5" style="enable-background:new 0 0 691.2 162.5;" xml:space="preserve">
<g>
	<path d="M401.1,78.5c0,21.6,0,43.3,0,64.9c0,0.8,0.4,1.7,0.7,2.5c0.8-0.3,1.8-0.4,2.5-0.8c32.6-21.1,65.1-42.2,97.6-63.4
		C541,56.3,580.1,30.9,619.2,5.5c3.9-2.6,8.2-3.8,12.9-3.8c15.6,0.1,31.2,0,46.8,0c7.5,0,12.3,4.8,12.3,12.3c0,30.5,0,61,0,91.6
		c0,4.9-0.7,9.7-3.4,14c-2.2,3.5-5.4,5.9-8.8,7.9c-19,11.4-37.9,22.8-56.9,34.2c-0.8,0.5-2,1-2.8,0.7c-1.2-0.4-0.9-1.8-0.9-2.9
		c0-34.7,0-69.4,0-104.2c0-0.9,0.4-2.2-0.7-2.6c-0.7-0.2-1.8,0.3-2.6,0.8c-20.4,13.2-40.7,26.4-61,39.6c-32,20.8-64,41.6-96,62.4
		c-3.9,2.5-8.1,3.7-12.8,3.7c-34.3,0-68.6,0-102.8,0c-2.2,0-4.4-0.2-6.4-1.2c-4.7-2.2-6.5-6.1-6.6-11.1c-0.1-5.7,0-11.4,0-17
		c0-37.4,0-74.8,0-112.2c0-0.1,0-0.2,0-0.2c-0.2-0.8-0.4-1.6-0.7-2.4c-0.8,0.2-1.7,0.3-2.4,0.7c-24.8,14.9-49.6,29.8-74.4,44.7
		c-9.5,5.7-19,11.4-28.6,17.1c-2.5,1.5-2.5,2.1-0.5,4.1c24.5,24.6,49.1,49.1,73.6,73.7c0.5,0.5,1,1,1.3,1.5c0.7,1.1,0.3,2-1,2.2
		c-0.7,0.1-1.4,0.2-2.1,0.2c-21.8,0-43.5,0-65.3,0c-2.7,0-5.4-0.4-8.1-0.9c-2-0.4-3.7-1.6-5.2-3c-14.7-14.7-29.3-29.4-44-44
		c-1.7-1.7-1.9-1.7-4-0.5c-24.7,14.8-49.3,29.6-73.9,44.5c-4.5,2.7-9.2,4.1-14.5,4c-22.2-0.1-44.3,0-66.5,0c-2.7,0-5.3-0.2-7.6-1.7
		c-3.9-2.3-5.6-5.9-5.6-10.4c0-17.2,0-34.3,0-51.5c0-13,0-26,0-39c0-3.9,0.5-7.7,2.1-11.3c2-4.4,5.5-7.4,9.5-9.9
		C23.7,28.3,35.9,21,48.1,13.7C55,9.5,61.9,5.3,68.8,1.2c1-0.6,2-1.7,3.1-1c1.2,0.7,0.9,2.2,0.9,3.4c0,25.5,0,51,0,76.6
		c0,13.4,0,26.8,0,40.2c0,1,0.4,2,0.6,2.9c0.9-0.3,2-0.5,2.8-1c32.9-19.7,65.8-39.5,98.7-59.3c32.1-19.3,64.2-38.5,96.2-57.8
		c3.8-2.3,7.9-3.4,12.4-3.4c35,0,70.1,0,105.1,0c7.5,0,12.3,4.8,12.3,12.3C401.1,35.5,401.1,57,401.1,78.5z"/>
</g>
</svg>
