<svg version="1.1" id="Layer_1" xmlns="http://www.w3.org/2000/svg" xmlns:xlink="http://www.w3.org/1999/xlink" x="0px" y="0px"
	 viewBox="0 0 42.8 62" style="enable-background:new 0 0 42.8 62;" xml:space="preserve">
<style type="text/css">
	.st0{opacity:0.2;fill:#05141F;}
	.st1{fill:#05141F;}
	.st2{fill:#FFFFFF;}
</style>
<path class="st0" d="M35,58.4c0,2-6.2,3.6-13.8,3.6S7.4,60.4,7.4,58.4s6.2-3.6,13.8-3.6C28.8,54.7,35,56.4,35,58.4z"/>
<path class="st1" d="M21.4,0C9.6,0,0,9.6,0,21.4C0,34,21.4,58.5,21.4,58.5S42.8,35,42.8,21.4C42.8,9.6,33.2,0,21.4,0z M21.4,33.7
	c-7.3,0-13.2-5.9-13.2-13.2S14.1,7.3,21.4,7.3s13.2,5.9,13.2,13.2S28.7,33.7,21.4,33.7z"/>
<circle class="st2" cx="21.4" cy="21.5" r="16.7"/>
<path class="st1" d="M23.4,23.8C23.4,23.8,23.4,23.9,23.4,23.8c0.1,0.1,0.1,0.1,0.1,0l7.7-5c0.1-0.1,0.3-0.1,0.4-0.1h1.7
	c0.3,0,0.4,0.2,0.4,0.4v3.2c0,0.4-0.1,0.6-0.4,0.8l-2.1,1.2c0,0,0,0-0.1,0c0,0,0,0,0-0.1v-3.8v-0.1c0,0,0,0-0.1,0L25.4,24
	c-0.2,0.1-0.3,0.1-0.4,0.1h-3.7c-0.3,0-0.4-0.2-0.4-0.4V19v-0.1c0,0,0,0-0.1,0L17,21.4c0,0,0,0,0,0.1c0,0,0,0,0,0.1l2.7,2.7l0.1,0.1
	c0,0,0,0-0.1,0h-2.4c-0.2,0-0.3,0-0.4-0.1l-1.6-1.6l0,0l0,0l-2.7,1.6c-0.2,0.1-0.3,0.1-0.4,0.1H9.5c-0.3,0-0.4-0.2-0.4-0.4v-3.2
	c0-0.4,0.1-0.6,0.4-0.8l2.1-1.2c0,0,0,0,0.1,0c0,0,0,0,0,0.1v4.2v0.1c0,0,0,0,0.1,0l7-4.2c0.2-0.1,0.3-0.1,0.5-0.1H23
	c0.3,0,0.4,0.2,0.4,0.4V23.8z"/>
</svg>
